TITLE ""
FILE "2Q_j_1301-1313.mp3" MP3
  TRACK 01 AUDIO
    TITLE "2Q_j_1301-1313_01"
    INDEX 01 00:00:00
  TRACK 02 AUDIO
    TITLE "2Q_j_1301-1313_02"
    INDEX 01 00:01:23
  TRACK 03 AUDIO
    TITLE "2Q_j_1301-1313_03"
    INDEX 01 00:04:32
  TRACK 04 AUDIO
    TITLE "2Q_j_1301-1313_04"
    INDEX 01 00:05:02
  TRACK 05 AUDIO
    TITLE "2Q_j_1301-1313_05"
    INDEX 01 00:06:54
  TRACK 06 AUDIO
    TITLE "2Q_j_1301-1313_06"
    INDEX 01 00:07:24
  TRACK 07 AUDIO
    TITLE "2Q_j_1301-1313_07"
    INDEX 01 00:08:63
  TRACK 08 AUDIO
    TITLE "2Q_j_1301-1313_08"
    INDEX 01 00:09:33
  TRACK 09 AUDIO
    TITLE "2Q_j_1301-1313_09"
    INDEX 01 00:11:00
  TRACK 10 AUDIO
    TITLE "2Q_j_1301-1313_10"
    INDEX 01 00:11:45
  TRACK 11 AUDIO
    TITLE "2Q_j_1301-1313_11"
    INDEX 01 00:17:01
  TRACK 12 AUDIO
    TITLE "2Q_j_1301-1313_12"
    INDEX 01 00:17:46
  TRACK 13 AUDIO
    TITLE "2Q_j_1301-1313_13"
    INDEX 01 00:19:15
  TRACK 14 AUDIO
    TITLE "2Q_j_1301-1313_14"
    INDEX 01 00:19:61
  TRACK 15 AUDIO
    TITLE "2Q_j_1301-1313_15"
    INDEX 01 00:21:40
  TRACK 16 AUDIO
    TITLE "2Q_j_1301-1313_16"
    INDEX 01 00:22:10
  TRACK 17 AUDIO
    TITLE "2Q_j_1301-1313_17"
    INDEX 01 00:26:43
  TRACK 18 AUDIO
    TITLE "2Q_j_1301-1313_18"
    INDEX 01 00:27:13
  TRACK 19 AUDIO
    TITLE "2Q_j_1301-1313_19"
    INDEX 01 00:28:44
  TRACK 20 AUDIO
    TITLE "2Q_j_1301-1313_20"
    INDEX 01 00:29:14
  TRACK 21 AUDIO
    TITLE "2Q_j_1301-1313_21"
    INDEX 01 00:32:40
  TRACK 22 AUDIO
    TITLE "2Q_j_1301-1313_22"
    INDEX 01 00:33:08
  TRACK 23 AUDIO
    TITLE "2Q_j_1301-1313_23"
    INDEX 01 00:36:16
  TRACK 24 AUDIO
    TITLE "2Q_j_1301-1313_24"
    INDEX 01 00:36:63
  TRACK 25 AUDIO
    TITLE "2Q_j_1301-1313_25"
    INDEX 01 00:38:07
  TRACK 26 AUDIO
    TITLE "2Q_j_1301-1313_26"
    INDEX 01 00:38:52
  TRACK 27 AUDIO
    TITLE "2Q_j_1301-1313_27"
    INDEX 01 00:43:18
  TRACK 28 AUDIO
    TITLE "2Q_j_1301-1313_28"
    INDEX 01 00:43:61
  TRACK 29 AUDIO
    TITLE "2Q_j_1301-1313_29"
    INDEX 01 00:48:15
  TRACK 30 AUDIO
    TITLE "2Q_j_1301-1313_30"
    INDEX 01 00:48:62
  TRACK 31 AUDIO
    TITLE "2Q_j_1301-1313_31"
    INDEX 01 00:50:04
  TRACK 32 AUDIO
    TITLE "2Q_j_1301-1313_32"
    INDEX 01 00:50:47
  TRACK 33 AUDIO
    TITLE "2Q_j_1301-1313_33"
    INDEX 01 00:52:29
  TRACK 34 AUDIO
    TITLE "2Q_j_1301-1313_34"
    INDEX 01 00:52:74
  TRACK 35 AUDIO
    TITLE "2Q_j_1301-1313_35"
    INDEX 01 00:57:34
  TRACK 36 AUDIO
    TITLE "2Q_j_1301-1313_36"
    INDEX 01 00:58:06
  TRACK 37 AUDIO
    TITLE "2Q_j_1301-1313_37"
    INDEX 01 00:59:42
  TRACK 38 AUDIO
    TITLE "2Q_j_1301-1313_38"
    INDEX 01 01:00:12
  TRACK 39 AUDIO
    TITLE "2Q_j_1301-1313_39"
    INDEX 01 01:03:58
  TRACK 40 AUDIO
    TITLE "2Q_j_1301-1313_40"
    INDEX 01 01:04:28
  TRACK 41 AUDIO
    TITLE "2Q_j_1301-1313_41"
    INDEX 01 01:08:14
  TRACK 42 AUDIO
    TITLE "2Q_j_1301-1313_42"
    INDEX 01 01:08:67
  TRACK 43 AUDIO
    TITLE "2Q_j_1301-1313_43"
    INDEX 01 01:10:13
  TRACK 44 AUDIO
    TITLE "2Q_j_1301-1313_44"
    INDEX 01 01:10:60
  TRACK 45 AUDIO
    TITLE "2Q_j_1301-1313_45"
    INDEX 01 01:14:46
  TRACK 46 AUDIO
    TITLE "2Q_j_1301-1313_46"
    INDEX 01 01:15:16
  TRACK 47 AUDIO
    TITLE "2Q_j_1301-1313_47"
    INDEX 01 01:18:36
  TRACK 48 AUDIO
    TITLE "2Q_j_1301-1313_48"
    INDEX 01 01:19:10
  TRACK 49 AUDIO
    TITLE "2Q_j_1301-1313_49"
    INDEX 01 01:21:26
  TRACK 50 AUDIO
    TITLE "2Q_j_1301-1313_50"
    INDEX 01 01:22:02
  TRACK 51 AUDIO
    TITLE "2Q_j_1301-1313_51"
    INDEX 01 01:23:74
  TRACK 52 AUDIO
    TITLE "2Q_j_1301-1313_52"
    INDEX 01 01:24:44
  TRACK 53 AUDIO
    TITLE "2Q_j_1301-1313_53"
    INDEX 01 01:28:05
  TRACK 54 AUDIO
    TITLE "2Q_j_1301-1313_54"
    INDEX 01 01:28:52
  TRACK 55 AUDIO
    TITLE "2Q_j_1301-1313_55"
    INDEX 01 01:30:39
  TRACK 56 AUDIO
    TITLE "2Q_j_1301-1313_56"
    INDEX 01 01:31:11
  TRACK 57 AUDIO
    TITLE "2Q_j_1301-1313_57"
    INDEX 01 01:32:67
  TRACK 58 AUDIO
    TITLE "2Q_j_1301-1313_58"
    INDEX 01 01:33:35
  TRACK 59 AUDIO
    TITLE "2Q_j_1301-1313_59"
    INDEX 01 01:38:19
  TRACK 60 AUDIO
    TITLE "2Q_j_1301-1313_60"
    INDEX 01 01:38:66
  TRACK 61 AUDIO
    TITLE "2Q_j_1301-1313_61"
    INDEX 01 01:40:22
  TRACK 62 AUDIO
    TITLE "2Q_j_1301-1313_62"
    INDEX 01 01:40:69
  TRACK 63 AUDIO
    TITLE "2Q_j_1301-1313_63"
    INDEX 01 01:44:16
  TRACK 64 AUDIO
    TITLE "2Q_j_1301-1313_64"
    INDEX 01 01:44:61
  TRACK 65 AUDIO
    TITLE "2Q_j_1301-1313_65"
    INDEX 01 01:48:35
  TRACK 66 AUDIO
    TITLE "2Q_j_1301-1313_66"
    INDEX 01 01:49:19
  TRACK 67 AUDIO
    TITLE "2Q_j_1301-1313_67"
    INDEX 01 01:50:32
  TRACK 68 AUDIO
    TITLE "2Q_j_1301-1313_68"
    INDEX 01 01:51:04
  TRACK 69 AUDIO
    TITLE "2Q_j_1301-1313_69"
    INDEX 01 01:56:72
  TRACK 70 AUDIO
    TITLE "2Q_j_1301-1313_70"
    INDEX 01 01:57:42
  TRACK 71 AUDIO
    TITLE "2Q_j_1301-1313_71"
    INDEX 01 02:01:51
  TRACK 72 AUDIO
    TITLE "2Q_j_1301-1313_72"
    INDEX 01 02:02:23
  TRACK 73 AUDIO
    TITLE "2Q_j_1301-1313_73"
    INDEX 01 02:03:48
  TRACK 74 AUDIO
    TITLE "2Q_j_1301-1313_74"
    INDEX 01 02:04:18
  TRACK 75 AUDIO
    TITLE "2Q_j_1301-1313_75"
    INDEX 01 02:06:13
  TRACK 76 AUDIO
    TITLE "2Q_j_1301-1313_76"
    INDEX 01 02:06:58
  TRACK 77 AUDIO
    TITLE "2Q_j_1301-1313_77"
    INDEX 01 02:11:05
  TRACK 78 AUDIO
    TITLE "2Q_j_1301-1313_78"
    INDEX 01 02:11:50
  TRACK 79 AUDIO
    TITLE "2Q_j_1301-1313_79"
    INDEX 01 02:13:11
  TRACK 80 AUDIO
    TITLE "2Q_j_1301-1313_80"
    INDEX 01 02:13:60
  TRACK 81 AUDIO
    TITLE "2Q_j_1301-1313_81"
    INDEX 01 02:14:58
  TRACK 82 AUDIO
    TITLE "2Q_j_1301-1313_82"
    INDEX 01 02:15:28
  TRACK 83 AUDIO
    TITLE "2Q_j_1301-1313_83"
    INDEX 01 02:18:67
